<?plantuml 1.2026.2?><svg xmlns="http://www.w3.org/2000/svg" xmlns:xlink="http://www.w3.org/1999/xlink" contentStyleType="text/css" data-diagram-type="DESCRIPTION" height="701px" preserveAspectRatio="none" style="width:427px;height:701px;background:#FFFFFF;" version="1.1" viewBox="0 0 427 701" width="427px" zoomAndPan="magnify"><title>Dependency Injection Flow</title><defs/><g><g class="title" data-source-line="1"><text fill="#000000" font-family="sans-serif" font-size="14" font-weight="bold" lengthAdjust="spacing" textLength="188.9433" x="112.0394" y="24.9659">Dependency Injection Flow</text></g><!--cluster main.go--><g class="cluster" data-qualified-name="main.go" data-source-line="3" id="ent0002"><path d="M8.5,46.6699 L66.6898,46.6699 A3.75,3.75 0 0 1 69.1898,49.1699 L76.1898,71.7378 L260.5,71.7378 A2.5,2.5 0 0 1 263,74.2378 L263,692.1699 A2.5,2.5 0 0 1 260.5,694.6699 L8.5,694.6699 A2.5,2.5 0 0 1 6,692.1699 L6,49.1699 A2.5,2.5 0 0 1 8.5,46.6699" fill="none" style="stroke:#000000;stroke-width:1.5;"/><line style="stroke:#000000;stroke-width:1.5;" x1="6" x2="76.1898" y1="71.7378" y2="71.7378"/><text fill="#000000" font-family="sans-serif" font-size="14" font-weight="bold" lengthAdjust="spacing" textLength="57.1898" x="10" y="63.6358">main.go</text></g><!--entity C--><g class="entity" data-qualified-name="main.go.C" data-source-line="4" id="ent0003"><rect fill="#F1F1F1" height="49.0679" rx="2.5" ry="2.5" style="stroke:#181818;stroke-width:0.5;" width="83.0078" x="31.5" y="84.6699"/><rect fill="#F1F1F1" height="10" style="stroke:#181818;stroke-width:0.5;" width="15" x="94.5078" y="89.6699"/><rect fill="#F1F1F1" height="2" style="stroke:#181818;stroke-width:0.5;" width="4" x="92.5078" y="91.6699"/><rect fill="#F1F1F1" height="2" style="stroke:#181818;stroke-width:0.5;" width="4" x="92.5078" y="95.6699"/><text fill="#000000" font-family="sans-serif" font-size="14" lengthAdjust="spacing" textLength="43.0078" x="46.5" y="119.6358">Config</text></g><!--entity L--><g class="entity" data-qualified-name="main.go.L" data-source-line="5" id="ent0004"><rect fill="#F1F1F1" height="49.0679" rx="2.5" ry="2.5" style="stroke:#181818;stroke-width:0.5;" width="86.7038" x="159.5" y="193.6699"/><rect fill="#F1F1F1" height="10" style="stroke:#181818;stroke-width:0.5;" width="15" x="226.2038" y="198.6699"/><rect fill="#F1F1F1" height="2" style="stroke:#181818;stroke-width:0.5;" width="4" x="224.2038" y="200.6699"/><rect fill="#F1F1F1" height="2" style="stroke:#181818;stroke-width:0.5;" width="4" x="224.2038" y="204.6699"/><text fill="#000000" font-family="sans-serif" font-size="14" lengthAdjust="spacing" textLength="46.7038" x="174.5" y="228.6358">Logger</text></g><!--entity DB--><g class="entity" data-qualified-name="main.go.DB" data-source-line="6" id="ent0005"><rect fill="#F1F1F1" height="49.0679" rx="2.5" ry="2.5" style="stroke:#181818;stroke-width:0.5;" width="102.0478" x="22" y="193.6699"/><rect fill="#F1F1F1" height="10" style="stroke:#181818;stroke-width:0.5;" width="15" x="104.0478" y="198.6699"/><rect fill="#F1F1F1" height="2" style="stroke:#181818;stroke-width:0.5;" width="4" x="102.0478" y="200.6699"/><rect fill="#F1F1F1" height="2" style="stroke:#181818;stroke-width:0.5;" width="4" x="102.0478" y="204.6699"/><text fill="#000000" font-family="sans-serif" font-size="14" lengthAdjust="spacing" textLength="62.0478" x="37" y="228.6358">Database</text></g><!--entity R--><g class="entity" data-qualified-name="main.go.R" data-source-line="7" id="ent0006"><rect fill="#F1F1F1" height="49.0679" rx="2.5" ry="2.5" style="stroke:#181818;stroke-width:0.5;" width="110.4477" x="58" y="302.6699"/><rect fill="#F1F1F1" height="10" style="stroke:#181818;stroke-width:0.5;" width="15" x="148.4477" y="307.6699"/><rect fill="#F1F1F1" height="2" style="stroke:#181818;stroke-width:0.5;" width="4" x="146.4477" y="309.6699"/><rect fill="#F1F1F1" height="2" style="stroke:#181818;stroke-width:0.5;" width="4" x="146.4477" y="313.6699"/><text fill="#000000" font-family="sans-serif" font-size="14" lengthAdjust="spacing" textLength="70.4477" x="73" y="337.6358">Repository</text></g><!--entity S--><g class="entity" data-qualified-name="main.go.S" data-source-line="8" id="ent0007"><rect fill="#F1F1F1" height="49.0679" rx="2.5" ry="2.5" style="stroke:#181818;stroke-width:0.5;" width="86.7038" x="118.5" y="411.6699"/><rect fill="#F1F1F1" height="10" style="stroke:#181818;stroke-width:0.5;" width="15" x="185.2038" y="416.6699"/><rect fill="#F1F1F1" height="2" style="stroke:#181818;stroke-width:0.5;" width="4" x="183.2038" y="418.6699"/><rect fill="#F1F1F1" height="2" style="stroke:#181818;stroke-width:0.5;" width="4" x="183.2038" y="422.6699"/><text fill="#000000" font-family="sans-serif" font-size="14" lengthAdjust="spacing" textLength="46.7038" x="133.5" y="446.6358">Service</text></g><!--entity H--><g class="entity" data-qualified-name="main.go.H" data-source-line="9" id="ent0008"><rect fill="#F1F1F1" height="49.0679" rx="2.5" ry="2.5" style="stroke:#181818;stroke-width:0.5;" width="92.7798" x="147.5" y="520.6699"/><rect fill="#F1F1F1" height="10" style="stroke:#181818;stroke-width:0.5;" width="15" x="220.2798" y="525.6699"/><rect fill="#F1F1F1" height="2" style="stroke:#181818;stroke-width:0.5;" width="4" x="218.2798" y="527.6699"/><rect fill="#F1F1F1" height="2" style="stroke:#181818;stroke-width:0.5;" width="4" x="218.2798" y="531.6699"/><text fill="#000000" font-family="sans-serif" font-size="14" lengthAdjust="spacing" textLength="52.7798" x="162.5" y="555.6358">Handler</text></g><!--entity GR--><g class="entity" data-qualified-name="main.go.GR" data-source-line="10" id="ent0009"><rect fill="#F1F1F1" height="49.0679" rx="2.5" ry="2.5" style="stroke:#181818;stroke-width:0.5;" width="110.6577" x="136.5" y="629.6699"/><rect fill="#F1F1F1" height="10" style="stroke:#181818;stroke-width:0.5;" width="15" x="227.1577" y="634.6699"/><rect fill="#F1F1F1" height="2" style="stroke:#181818;stroke-width:0.5;" width="4" x="225.1577" y="636.6699"/><rect fill="#F1F1F1" height="2" style="stroke:#181818;stroke-width:0.5;" width="4" x="225.1577" y="640.6699"/><text fill="#000000" font-family="sans-serif" font-size="14" lengthAdjust="spacing" textLength="70.6577" x="151.5" y="664.6358">Gin Router</text></g><g class="entity" data-qualified-name="GMN18" data-source-line="22" id="ent0019"><path d="M279,313.1699 L279,323.1699 L168.38,327.1699 L279,331.1699 L279,340.8759 A0,0 0 0 0 279,340.8759 L355.3801,340.8759 A0,0 0 0 0 355.3801,340.8759 L355.3801,323.1699 L345.3801,313.1699 L279,313.1699 A0,0 0 0 0 279,313.1699" fill="#FEFFDD" style="stroke:#181818;stroke-width:0.5;"/><path d="M345.3801,313.1699 L345.3801,323.1699 L355.3801,323.1699 L345.3801,313.1699" fill="#FEFFDD" style="stroke:#181818;stroke-width:0.5;"/><text fill="#000000" font-family="sans-serif" font-size="13" lengthAdjust="spacing" textLength="55.3801" x="285" y="332.0669">Inject DB</text></g><g class="entity" data-qualified-name="GMN21" data-source-line="23" id="ent0022"><path d="M279.5,422.1699 L279.5,432.1699 L205.7,436.1699 L279.5,440.1699 L279.5,449.8759 A0,0 0 0 0 279.5,449.8759 L420.0221,449.8759 A0,0 0 0 0 420.0221,449.8759 L420.0221,432.1699 L410.0221,422.1699 L279.5,422.1699 A0,0 0 0 0 279.5,422.1699" fill="#FEFFDD" style="stroke:#181818;stroke-width:0.5;"/><path d="M410.0221,422.1699 L410.0221,432.1699 L420.0221,432.1699 L410.0221,422.1699" fill="#FEFFDD" style="stroke:#181818;stroke-width:0.5;"/><text fill="#000000" font-family="sans-serif" font-size="13" lengthAdjust="spacing" textLength="119.5221" x="285.5" y="441.0669">Inject Repo+Logger</text></g><g class="entity" data-qualified-name="GMN24" data-source-line="24" id="ent0025"><path d="M279,531.1699 L279,541.1699 L240.75,545.1699 L279,549.1699 L279,558.8759 A0,0 0 0 0 279,558.8759 L380.8081,558.8759 A0,0 0 0 0 380.8081,558.8759 L380.8081,541.1699 L370.8081,531.1699 L279,531.1699 A0,0 0 0 0 279,531.1699" fill="#FEFFDD" style="stroke:#181818;stroke-width:0.5;"/><path d="M370.8081,531.1699 L370.8081,541.1699 L380.8081,541.1699 L370.8081,531.1699" fill="#FEFFDD" style="stroke:#181818;stroke-width:0.5;"/><text fill="#000000" font-family="sans-serif" font-size="13" lengthAdjust="spacing" textLength="80.8081" x="285" y="550.0669">Inject Service</text></g><!--link C to DB--><g class="link" data-entity-1="ent0003" data-entity-2="ent0005" data-link-type="dependency" data-source-line="12" id="lnk10"><path d="M73,133.9199 C73,151.6499 73,169.7699 73,187.4899" fill="none" id="C-to-DB" style="stroke:#181818;stroke-width:1;"/><polygon fill="#181818" points="73,193.4899,77,184.4899,73,188.4899,69,184.4899,73,193.4899" style="stroke:#181818;stroke-width:1;"/></g><!--link L to R--><g class="link" data-entity-1="ent0004" data-entity-2="ent0006" data-link-type="dependency" data-source-line="13" id="lnk11"><path d="M183.03,242.9199 C168.11,260.6499 151.6815,280.1776 136.7815,297.8976" fill="none" id="L-to-R" style="stroke:#181818;stroke-width:1;"/><polygon fill="#181818" points="132.92,302.4899,141.7737,298.1758,136.1379,298.663,135.6507,293.0272,132.92,302.4899" style="stroke:#181818;stroke-width:1;"/></g><!--link L to S--><g class="link" data-entity-1="ent0004" data-entity-2="ent0007" data-link-type="dependency" data-source-line="14" id="lnk12"><path d="M201.06,242.8099 C198.63,269.4499 193.79,313.9699 186,351.6699 C181.76,372.1999 176.8593,389.3292 171.6093,405.9292" fill="none" id="L-to-S" style="stroke:#181818;stroke-width:1;"/><polygon fill="#181818" points="169.8,411.6499,176.3277,404.275,171.3077,406.8826,168.7001,401.8627,169.8,411.6499" style="stroke:#181818;stroke-width:1;"/></g><!--link L to H--><g class="link" data-entity-1="ent0004" data-entity-2="ent0008" data-link-type="dependency" data-source-line="15" id="lnk13"><path d="M208.88,242.9899 C218.75,286.4999 236.33,381.6399 223,460.6699 C219.48,481.5499 213.6159,498.6324 206.8459,515.0624" fill="none" id="L-to-H" style="stroke:#181818;stroke-width:1;"/><polygon fill="#181818" points="204.56,520.6099,211.6871,513.8125,206.4649,515.987,204.2904,510.7647,204.56,520.6099" style="stroke:#181818;stroke-width:1;"/></g><!--link DB to R--><g class="link" data-entity-1="ent0005" data-entity-2="ent0006" data-link-type="dependency" data-source-line="16" id="lnk14"><path d="M81.88,242.9199 C88.51,260.6499 95.4174,279.1504 102.0474,296.8704" fill="none" id="DB-to-R" style="stroke:#181818;stroke-width:1;"/><polygon fill="#181818" points="104.15,302.4899,104.7425,292.6589,102.3979,297.807,97.2498,295.4623,104.15,302.4899" style="stroke:#181818;stroke-width:1;"/></g><!--link R to S--><g class="link" data-entity-1="ent0006" data-entity-2="ent0007" data-link-type="dependency" data-source-line="17" id="lnk15"><path d="M123.87,351.9199 C131.99,369.6499 140.5405,388.3153 148.6605,406.0353" fill="none" id="R-to-S" style="stroke:#181818;stroke-width:1;"/><polygon fill="#181818" points="151.16,411.4899,151.0471,401.6417,149.0771,406.9444,143.7744,404.9744,151.16,411.4899" style="stroke:#181818;stroke-width:1;"/></g><!--link S to H--><g class="link" data-entity-1="ent0007" data-entity-2="ent0008" data-link-type="dependency" data-source-line="18" id="lnk16"><path d="M169.1,460.9199 C174.4,478.6499 179.9007,497.0215 185.2007,514.7415" fill="none" id="S-to-H" style="stroke:#181818;stroke-width:1;"/><polygon fill="#181818" points="186.92,520.4899,188.1733,510.7211,185.4872,515.6996,180.5088,513.0135,186.92,520.4899" style="stroke:#181818;stroke-width:1;"/></g><!--link H to GR--><g class="link" data-entity-1="ent0008" data-entity-2="ent0009" data-link-type="dependency" data-source-line="19" id="lnk17"><path d="M193.56,569.9199 C193.22,587.6499 192.8817,605.7709 192.5517,623.4909" fill="none" id="H-to-GR" style="stroke:#181818;stroke-width:1;"/><polygon fill="#181818" points="192.44,629.4899,196.6069,620.5659,192.5331,624.4908,188.6083,620.417,192.44,629.4899" style="stroke:#181818;stroke-width:1;"/></g><?plantuml-src NP2nRiCm34HtVGNXDKW-e4E6s4XSm9Cq1XrKcrRKEgHXAms2eFyUKpPajDlntOd4AVZG8HJO8pL8zGFUwGlhu9dWsF5TgTxMtzOXP5VhQUSuWwS2EETChNSVO4V8PQxOEHpYNCbSs60_xOYH50T16diUVU3X4Q4MPd3uyVMSCW9AIqstB2e5d3o1vbjOs4chYUQmtUxdjLMKEYcJb3ml3idMoJR9BgEQTlugHHmG1kyk0RYTqc_BLyYPlvvPFUcqcRl_2vLhQ2dv0W00?></g></svg>